/* XPM */
static char *e5ef6a8aa7e84dc8dcf9abae53b846e3DUlycT5r1PD4uril[] = {
/* columns rows colors chars-per-pixel */
"64 64 233 2 ",
"   c None",
".  c #060601",
"X  c #0A0B06",
"o  c #0D0E0A",
"O  c #11110D",
"+  c #151613",
"@  c #191916",
"#  c #1C1C1A",
"$  c #171814",
"%  c #1F201C",
"&  c #21211E",
"*  c #322E1F",
"=  c #191E24",
"-  c #1E2125",
";  c #1D232D",
":  c #1C2434",
">  c #1A253C",
",  c #1D293D",
"<  c #242423",
"1  c #292926",
"2  c #23262A",
"3  c #25292C",
"4  c #2C2C2B",
"5  c #292623",
"6  c #2F302D",
"7  c #31312C",
"8  c #212733",
"9  c #232934",
"0  c #2A2E32",
"q  c #242B3A",
"w  c #2A2F39",
"e  c #2C323B",
"r  c #2E3133",
"t  c #333433",
"y  c #3B3A34",
"u  c #34363B",
"i  c #37383B",
"p  c #3B3B3C",
"a  c #423E36",
"s  c #47443C",
"d  c #58473C",
"f  c #5D543C",
"g  c #654A38",
"h  c #74523B",
"j  c #67543D",
"k  c #77653E",
"l  c #1D2A44",
"z  c #13224C",
"x  c #1C2B4B",
"c  c #172545",
"v  c #142453",
"b  c #182B52",
"n  c #152B5C",
"m  c #152657",
"M  c #17305D",
"N  c #232E45",
"B  c #2A3344",
"V  c #2D394B",
"C  c #27324B",
"Z  c #323741",
"A  c #363A44",
"S  c #3B3D42",
"D  c #353B4B",
"F  c #393C4A",
"G  c #293856",
"H  c #323B50",
"J  c #132C63",
"K  c #112561",
"L  c #1E2E57",
"P  c #3D4246",
"I  c #3B445A",
"U  c #2A4165",
"Y  c #3B4969",
"T  c #324679",
"R  c #424242",
"E  c #4C4B42",
"W  c #474848",
"Q  c #584D47",
"!  c #57524A",
"~  c #474B58",
"^  c #4C5155",
"/  c #555554",
"(  c #5D5858",
")  c #574E52",
"_  c #674E42",
"`  c #685647",
"'  c #795747",
"]  c #655A55",
"[  c #785248",
"{  c #5F605E",
"}  c #6E654D",
"|  c #76654A",
" . c #64625C",
".. c #6B655C",
"X. c #776758",
"o. c #7A7058",
"O. c #565868",
"+. c #4B5875",
"@. c #545976",
"#. c #4B4E6A",
"$. c #685B66",
"%. c #596475",
"&. c #5B6269",
"*. c #636362",
"=. c #696968",
"-. c #726E6C",
";. c #74716B",
":. c #787367",
">. c #6B6C73",
",. c #686878",
"<. c #7B7B7E",
"1. c #757478",
"2. c #716F76",
"3. c #87553B",
"4. c #90583D",
"5. c #8C5C44",
"6. c #815D4C",
"7. c #8B5D4C",
"8. c #865844",
"9. c #965E49",
"0. c #8F5D51",
"q. c #866B46",
"w. c #92634C",
"e. c #9B634A",
"r. c #946147",
"t. c #89734A",
"y. c #896957",
"u. c #966653",
"i. c #877858",
"p. c #937C53",
"a. c #90794F",
"s. c #A2664D",
"d. c #A2694F",
"f. c #A36B53",
"g. c #A96C56",
"h. c #AC725B",
"j. c #AA7358",
"k. c #B5785B",
"l. c #BA6F59",
"z. c #8C6D69",
"x. c #83776C",
"c. c #867777",
"v. c #987973",
"b. c #937168",
"n. c #AB7868",
"m. c #BA7B67",
"M. c #AC7D75",
"N. c #C37A5C",
"B. c #C06F5C",
"V. c #C97D61",
"C. c #9C855B",
"Z. c #978158",
"A. c #A58C5F",
"S. c #8C836B",
"D. c #9C8966",
"F. c #878379",
"G. c #988D77",
"H. c #A28D63",
"J. c #A48F6C",
"K. c #BA8569",
"L. c #AB9569",
"P. c #B39C6C",
"I. c #B98675",
"U. c #AB9877",
"Y. c #B29E73",
"T. c #AE827A",
"R. c #B8A375",
"E. c #D7825E",
"W. c #CE8A6A",
"Q. c #C88466",
"!. c #D38364",
"~. c #D88B68",
"^. c #DA926B",
"/. c #C48772",
"(. c #CA9479",
"). c #DC9471",
"_. c #D99676",
"`. c #D28F70",
"'. c #E58F67",
"]. c #E7946A",
"[. c #F2986B",
"{. c #E59B73",
"}. c #EA9E73",
"|. c #E49974",
" X c #EDA577",
".X c #F2A878",
"XX c #F5A06E",
"oX c #3B5689",
"OX c #52658B",
"+X c #7D7D82",
"@X c #7E7887",
"#X c #707287",
"$X c #877881",
"%X c #7F8187",
"&X c #7D8DA2",
"*X c #828385",
"=X c #88888A",
"-X c #958D82",
";X c #9D968A",
":X c #989388",
">X c #898D96",
",X c #94909B",
"<X c #A69B89",
"1X c #A38C9B",
"2X c #AC8F8C",
"3X c #B9A787",
"4X c #ABA395",
"5X c #B9AB99",
"6X c #BFB09A",
"7X c #9099A6",
"8X c #98A4B6",
"9X c #9EA2A8",
"0X c #A8A9A9",
"qX c #B5AEA4",
"wX c #BAB3AA",
"eX c #A2ABB8",
"rX c #B9B8B8",
"tX c #CC9986",
"yX c #C4AD92",
"uX c #CABBAA",
"iX c #C3B7A8",
"pX c #CEBCAF",
"aX c #EDB185",
"sX c #D6C49D",
"dX c #E2C59B",
"fX c #D0C6B1",
"gX c #E7CAA8",
"hX c #F4D4A8",
"jX c #EED0A9",
"kX c #BCBEC0",
"lX c #9DACC0",
"zX c #D6D0C9",
"xX c #E6D5C5",
/* pixels */
"                                                                                                                                ",
"                                                                                                                                ",
"                                                                                                                                ",
"                                                                                                                                ",
"                                                                                                                                ",
"                                                                                                                                ",
"                                                                                                                                ",
"                                                                                                                                ",
"                                                                                                                                ",
"                                                    &.{ / /  .] )                                                               ",
"                                                OX+.%.{ / / / ( W s E                                                           ",
"                                                +.%.O.*.{ &.{  ./ / ^ P W                                                       ",
"                                              ~ ~ P E ! ..] =.} X.y.X.*.W                                                       ",
"                                            H H t f y.' q.u.6.w.K.`.k.y.] I                                                     ",
"                                            N u ^ z.M.K.Q.W.k.j.W.|. XA.| !                                                     ",
"                                            C @.#Xb.M./.`.).).|. X X.XaXK.` (                                                   ",
"                                            G OX@Xb.M./._._._.|.}.}. X X(.' ]                                                   ",
"                                            Y OX>.v.M./.`._._.|.}. X}. X_.a.`                                                   ",
"                                            oX@.,.c.b.g.h.!.~.N.k.Q.^.{. XP.i.                                                  ",
"                                            Y O.$.] [ 0.7.h.~.s.3.w.Q.^.).m.b.                                                  ",
"                                            ~ #.$.] [ g.[ 0.B.B.e.j.Q.K.m.n.N.                                                  ",
"                                            #.OXz.n.h.h.6.n.].V.W.Q.!.^.^.).{.                                                  ",
"                                            ~ OXz.$X`.V.0.$XaXV.].].}.[.~.|.[.                                                  ",
"                                            #.#.-.V.V.B.b.V.aX[.E.[.XX].'.}.[.                                                  ",
"                                            OX@.) g.B.s.d 8.V.V.~.E.[.'.'.[.XX                                                  ",
"                                            $.O.) e.g.9.0.g.V.}.].E.'.].].].                                                    ",
"                                              #.) 0.s.8.9.B.V.!.Q.E.'.'.{.                                                      ",
"                                              C ) 8.s.0.u.B.V.'.~.E.^.~.                                                        ",
"                                            z x #.[ 8.[ 0.B.~.'.^.E.~.W.                                                        ",
"                                          K z > Y a _ 6.0.l.!.{.{.E.K._ 6                                                       ",
"                                  N l v n m c = T S d ) 0.s.l.W.^.K.k.5 & B                                                     ",
"                              n L N l b b x : = U oXA d _ [ [ 8.j.K.(.  O , U                                                   ",
"                        J J J b c , l x x x > 2 N oX#.s f ` ' w.k.W.tX                                                          ",
"                    J J J J b z , , N l N N N 9 ; Y OX/ g _ w.m.W._.5XF G U                                                     ",
"                  J n M M b z q 9 9 9 9 w N N w 4 P #X>Xc.X.u.W.`.gX4Xi A D H U                                                 ",
"                n n b x x N N 8 : 3 3 9 e B N w 6 p +XrXfXiXyXP.sXxX-X0 S A A G C G                                             ",
"              m b z q q N q 8 8 9 3 3 9 e B B 0 6 t ;.wXkXzXsXJ.U.xX-X4 p A H Z D C G                                           ",
"            m v z l 8 8 w r r w q 9 3 2 < B e t r t -.0XwXwXL.L.D.4X4Xy t S H Z S A D G G                                       ",
"            z : > 8 8 1 4 r t e Z Z i Z 3 0 i t t t  .wXwX:.f Z.H.:.iXE 0 P V S A i Z D D G                                     ",
"            z : 8 8 3 3 4 t t u Z D A A i P p t t r W qXqXx.s | C. .wX .4 G i S p i p S F F H                                   ",
"            m c : ; 2 5 2 6 t t u A A p p P R u t 0 t F.;X4X! | L.o.:X:.e V p p p p p A F F A                                   ",
"          v z c N 8 4 1 - 5 r 4 t Z A i p R R y 7 r 7 =.;X-XE i.U.<XF.F.V r p p i i i p S A A F                     tX          ",
"          z : = ; 2 4 4 < # 1 < 3 u p A t P P p t t t ! 4X:X! i.L.6XiX-XV 1 i p i i i i p A F S                   m._.      V.  ",
"          v ; - ; 2 1 0 4 & # + + 4 p A i y R R i t t R <X;X} C.U.5XuX=XS < t p p t i i i p P P                   m.`.  $Xn.    ",
"        J m > : : 2 3 6 t 1 $ + o # t S S t R R p y i u ;.;Xo.C.P.R.qX>.F.7 4 p p i i y p p S S                   V.tX$XtXh.    ",
"        J n b c 8 < 4 4 r 7 & + o + 4 p P S t R R i t u / G.i.H.L.Y.F.+XfX..< i p y i i p p S S                 2XtX2Xz.g.      ",
"        b n b > - % 5 6 t 7 < # o O < t R S i p P y t t s F.i.H.Y.L.&.5XuXF.6 y p S p p R a R p R               1X1Xc.w.n.      ",
"        > > x 8 # $ - 4 t t 4 < O o # t p R R t p i i 7 i  .i.H.R.S.;.iXuX<Xy 6 p a p R R S R p S             1Xb.v.7.u.        ",
"        > = = : 8 = # 5 r t 7 & o o # 4 i R R i r p t r p W o.L.L.*.S.3XuX4Xs 4 p p s W R a P p             ,X$X0.7.8.          ",
"        : - @ # = 3 - - 1 r 7 5 + o @ < t R R S r t 7 t p R } P.S.*.Y.U.uXqX! 1 p p p R R R p p             $X] 8.5.            ",
"        2 2 < # # # - 5 4 4 4 5 + o + - 4 i R p p 1 6 p p p x.3Xo.F.R.H.6XiX..< i a S S R p y p           ,.] g 5.s.            ",
"        8 8 8 < & - & < 1 t t 5 $ X + < 5 t i p P 4 % p R p -.uXo.L.R.A.3XiX:.5 t S a p S p i p           ] j h 9.g.            ",
"        9 q 8 < - < < 2 3 r i p 1 O $ # - 1 6 R a i & 5 S R W qXx.U.R.L.J.iXF.& 7 p p s p S i p R       ] Q h 4.d.              ",
"        2 8 3 5 < < 1 3 4 t y p y # + @ % 1 6 y t S t $ < p i c.F.sX3XL.C.yX-X4 4 i p p s p t y p       Q d g 4.d.              ",
"        < < < < 1 2 2 1 4 t i a p & + $ # < 6 7 t S p & o < p W F.zX3XP.C.<X;Xy < i i i R p 7 y 7       [ ' h e.j.              ",
"        - < < 3 1 3 3 1 5 r u R p % o + @ & 1 1 t a p 1 # X < Z *.wXR.R.C.D.<XE & t y i p i % & 7 4   >.6.5.e.r.                ",
"        - < < 2 8 8 3 1 1 < 7 R P & o O + @ % 7 7 y t 7 1 $ o - ( U.P.R.A.Z.U.{ & 7 p y i t % O & w %.X.q.5.e.e.                ",
"7X0XkXkX1.y < 3 8 4 1 < < 2 t R P 1 X o O $ % 1 1 1 1 6 6 4 @ % E i.A.L.L.Z.G.:.< 5 6 6 t < O O & Y 2.9.9.4.e.n.                ",
"+X*X>X9XrX0X1.^ i 1 < < 3 : 6 7 p 6 o O o O & 1 1 & 5 5 1 6 1 & E } H.H.Z.Z.Z...# & 6 4 1 % o X # +.c.s.s.4.4.y.                ",
"+X+X%X%X%X,X>X8X9X>X2.O.I ~ ^ ^ / ^ P P P P ^ *.o.a 4 1 1 4 3 1 E 7 Z.C.Z.Z.t. .& % 1 1 & + . X o ~ 1.g.4.3.h  .                ",
"  kXkXrX6X+X=.=X,X7X8X&X&X7X7X8X8XeXlXeXeXeXeXqXsXyXo.r 3 0 3 3 s $ f Z.Z.t.t.} 1 @ 1 6 $ O O . X A 2.:.y.' S.a                 ",
"  zXzXjXjX;X=.1.<.<.>.1.%X%X%X%X%X>X7X>X>X>X=X4XsXhXgXU.p 6 0 6 f % s Z.k t.k k 7 O 5 1 O X . . . < =.=.=.-XF.y                 ",
"  zXgXjXhX3X=.1.1.1.=.+X<.<.%X+X%X<.<.*X%X=X-X:XuXdXgXjXH.1 1 1 s 1 s Z.Z.k Z.k * O & 1 o . . . . o E =.;.F.] a                 ",
"  fXgXhXhX5X=.1.1.1.>.<.<.<.%X<.+X+X+X+X<.*X*X=XG.G.U.jXsXf $ 6 s 3 y Z.t.Z.k k * o # & X . . . . . 7 =.:.:.s a                 "
};
