/* XPM */
static char *result[] = {
/* columns rows colors chars-per-pixel */
"64 64 198 2 ",
"   c #010101",
".  c #0C0C0C",
"X  c #040506",
"o  c #130C09",
"O  c #040B14",
"+  c #141414",
"@  c #1B1B1B",
"#  c #1E1717",
"$  c #071B1B",
"%  c #201E1E",
"&  c #24211E",
"*  c #051524",
"=  c #0C1B29",
"-  c #031D36",
";  c #2D1B2B",
":  c #05223C",
">  c #09243D",
",  c #192834",
"<  c #0F2227",
"1  c #232323",
"2  c #2C2C2C",
"3  c #23272C",
"4  c #37312D",
"5  c #242D34",
"6  c #3B2639",
"7  c #333333",
"8  c #3C3C3C",
"9  c #393838",
"0  c #2E3135",
"q  c #403D3D",
"w  c #4F453D",
"e  c #082740",
"r  c #092A46",
"t  c #042B4C",
"y  c #092D4B",
"u  c #193248",
"i  c #0A3153",
"p  c #09365B",
"a  c #153D5E",
"s  c #103758",
"d  c #112F49",
"f  c #283C4A",
"g  c #0B3B63",
"h  c #0A3E69",
"j  c #023967",
"k  c #003F74",
"l  c #443D43",
"z  c #563753",
"x  c #432D41",
"c  c #3D4043",
"v  c #34414A",
"b  c #334A5B",
"n  c #22425D",
"m  c #0A406D",
"M  c #044377",
"N  c #0B4574",
"B  c #01457D",
"V  c #0C4A7B",
"C  c #0D4877",
"Z  c #1C4A6F",
"A  c #3E5D70",
"S  c #2D4C66",
"D  c #007777",
"F  c #444343",
"G  c #484247",
"H  c #4A4249",
"J  c #4C4B4B",
"K  c #42454A",
"L  c #564C56",
"P  c #485A5E",
"I  c #545454",
"U  c #5B5B5B",
"Y  c #585757",
"T  c #514943",
"R  c #605B5E",
"E  c #64605F",
"W  c #4A5A62",
"Q  c #6A5668",
"!  c #675D66",
"~  c #694A66",
"^  c #5B646B",
"/  c #496679",
"(  c #566874",
")  c #5B707D",
"_  c #636363",
"`  c #6B6B6C",
"'  c #686668",
"]  c #70706F",
"[  c #6B6E71",
"{  c #656D72",
"}  c #756E74",
"|  c #6F7071",
" . c #727272",
".. c #7B7B7B",
"X. c #78787A",
"o. c #746868",
"O. c #81527D",
"+. c #7E847F",
"@. c #094E86",
"#. c #0E5085",
"$. c #05518E",
"%. c #0D538B",
"&. c #13578E",
"*. c #0C5690",
"=. c #0E5995",
"-. c #085797",
";. c #105C99",
":. c #005BA2",
">. c #0F60A1",
",. c #0863AA",
"<. c #1066AA",
"1. c #0D6AB3",
"2. c #086BB8",
"3. c #106AB0",
"4. c #0E70BC",
"5. c #1072BE",
"6. c #516E81",
"7. c #527489",
"8. c #0F76C5",
"9. c #0E77C8",
"0. c #0F78CA",
"q. c #1076C5",
"w. c #117ACC",
"e. c #1378C6",
"r. c #0F7DD2",
"t. c #117ED2",
"y. c #985D93",
"u. c #945C8F",
"i. c #9E6799",
"p. c #A66CA1",
"a. c #A567A0",
"s. c #B476AE",
"d. c #029191",
"f. c #10A2A2",
"g. c #05B9B9",
"h. c #0AA4A4",
"j. c #6D9DBA",
"k. c #6A97B3",
"l. c #6D92A9",
"z. c #7CA2BA",
"x. c #0F80D7",
"c. c #1181D7",
"v. c #1283DA",
"b. c #1287E0",
"n. c #138BE7",
"m. c #7CACCA",
"M. c #05D7D7",
"N. c #0AC9C9",
"B. c #03FFFF",
"V. c #04F9F9",
"C. c #838383",
"Z. c #8C8B8C",
"A. c #888488",
"S. c #8F9090",
"D. c #929293",
"F. c #9B9694",
"G. c #9C9C9C",
"H. c #929090",
"J. c #A3A3A3",
"K. c #A9AAAA",
"L. c #A9A6A9",
"P. c #B3AEAE",
"I. c #B4B4B4",
"U. c #BCBCBC",
"Y. c #B5B0AD",
"T. c #C3BFBD",
"R. c #80ADC8",
"E. c #84B0CA",
"W. c #86B7D5",
"Q. c #D78DD1",
"!. c #DF93D8",
"~. c #CF8AC9",
"^. c #E294DB",
"/. c #EE9CE7",
"(. c #FFAEFB",
"). c #FFB3FF",
"_. c #FFBCFF",
"`. c #F3A0EC",
"'. c #93CBED",
"]. c #92C5E3",
"[. c #ABEDFF",
"{. c #A4E1FF",
"}. c #AEF0FF",
"|. c #B6FBFF",
" X c #B9FEFF",
".X c #B0F3FF",
"XX c #C4C4C4",
"oX c #CCCCCC",
"OX c #D3D3D3",
"+X c #DCDCDC",
"@X c #DAD5D5",
"#X c #E0DDDB",
"$X c #FFC1FF",
"%X c #E5E5E4",
"&X c #EBEBEB",
"*X c #F3F3F3",
"=X c #FEFEFE",
"-X c None",
/* pixels */
"-X-X-X-X-X-X-X-X-X-X-X-X-X-X-X-X-X-X-X-X-X-X-X-X-X-X-X-X-X-X-X-X-X-X-X-X-X-X-X-X-X-X-X-X-X-X-X-X-X-X-X-X-X-X-X-X-X-X-X-X-X-X-X-X",
"-X-X-X-X-X-X-X-X-X-X-X-X-X-X-X-X-X-X-X-X-X-X-X-X-X-X-X-X-X-X-X-X-X-X-X-X-X-X-X-X-X-X-X-X-X-X-X-X-X-X-X-X-X-X-X-X-X-X-X-X-X-X-X-X",
"-X-X-X-X-X-X-X-X-X-X-X-X-X-X-X-X-X-X-X-X-X-X-X-X-X-X-X-X-X-X-X-X-X-X-X-X-X-X-X-X-X-X-X-X-X-X-X-X-X-X-X-X-X-X-X-X-X-X-X-X-X-X-X-X",
"-X-X-X-X-X-X-X-X-X-X-X-X-X-X-X-X-X-X-X-X-X-X-X-X-X-X-X-XJ J J J J J J J -X-X-X-X-X-X-X-X-X-X-X-X-X-X-X-X-X-X-X-X-X-X-X-X-X-X-X-X",
"-X-X-X-X-X-X-X-X-X-X-X-X-X-X-X-X-X-X-X-X-X-X-X-X-X-XJ XXOXOXOXOXOXOXOXOX_ 9 -X-X-X-X-X-X-X-X-X-X-X-X-X-X-X-X-X-X-X-X-X-X-X-X-X-X",
"-X-X-X-X-X-X-X-X-X-X-X-X-X-X-X-X-X-X-X-X-X-X-X-X..=X*X=X=X=X=X=X=X=X=X=X*X=XJ.J -X-X-X-X-X-X-X-X-X-X-X-X-X-X-X-X-X-X-X-X-X-X-X-X",
"-X-X-X-X-X-X-X-X-X-X-X-X-X-X-X-X-X-X-X-X-X-X-X&X=X=X=X=X=X=X*X=X=X*X=X=X=X=X=X=X .-X-X-X-X-X-X-X-X-X-X-X-X-X-X-X-X-X-X-X-X-X-X-X",
"-X-X-X-X-X-X-X-X-X-X-X-X-X-X-X-X-X-X-X-X-X-X%X=X*X=X=X=X=X=X=X=X=X=X=X=X=X=X*X=X=X` -X-X-X-X-X-X-X-X-X-X-X-X-X-X-X-X-X-X-X-X-X-X",
"-X-X-X-X-X-X-X-X-X-X-X-X-X-X-X-X-X-X-X-X-XOX=X*X=X=X=X=X=X=X=X=X=X=X=X=X=X=X=X=X=X=XY -X-X-X-X-X-X-X-X-X-X-X-X-X-X-X-X-X-X-X-X-X",
"-X-X-X-X-X-X-X-X-X-X-X-X-X-X-X-X-X-X-X-X-X*X=X=X=X=X=X*X=X=X=X=X=X=X=X=X=X=X*X=X*X=XJ -X-X-X-X-X-X-X-X-X-X-X-X-X-X-X-X-X-X-X-X-X",
"-X-X-X-X-X-X-X-X-X-X-X-X-X-X-X-X-X-X-X-XXX=X=X=X=X=X=X=X=X=X=X=X=X=X=X=X=X=X=X=X=X=XJ.-X-X-X-X-X-X-X-X-X-X-X-X-X-X-X-X-X-X-X-X-X",
"-X-X-X-X-X-X-X-X-X-X-X-X-X-X-X-X-X-X-X-XI.=X=X&XI F J 9 D.=X=X=X=X=XU.9 J J q oX=X=X*XF -X-X-X-X-X-X-X-X-X-X-X-X-X-X-X-X-X-X-X-X",
"-X-X-X-X-X-X-X-X-X-X-X-X-X-X-X-X-X-X-X-XI.=X] .           I.=X=X=X%X.   g.V.D   Y =X%XJ -X-X-X-X-X-X-X-X-X-X-X-X-X-X-X-X-X-X-X-X",
"-X-X-X-X-X-X-X-X-X-X-X-X-X-X-X-X-X-X-X-XXXXX        X X   L.=X*X=X+X$ N.B.g.B.D 1 +X&XJ -X-X-X-X-X-X-X-X-X-X-X-X-X-X-X-X-X-X-X-X",
"-X-X-X-X-X-X-X-X-X-X-X-X-X-X-X-X-X-X-X-XOXU.  X       X   K.=X=X=X@X$ M.V.h.B.f.  ` =XF -X-X-X-X-X-X-X-X-X-X-X-X-X-X-X-X-X-X-X-X",
"-X-X-X-X-X-X-X-X-X-X-X-X-X-X-X-X-X-X-X-X-X*XU             I.*X7 U.=Xo.O N.B.d.  2 *X..J.-X-X-X-X-X-X-X-X-X-X-X-X-X-X-X-X-X-X-X-X",
"-X-X-X-X-X-X-X-X-X-X-X-X-X-X-X-X-X-X-X-XI OX=XOX9 1 F @ I =XI.  ..=XXX  v P 3 K.=X*XI &X-X-X-X-X-X-X-X-X-X-X-X-X-X-X-X-X-X-X-X-X",
"-X-X-X-X-X-X-X-X-X-X-X-X-X-X-X-X-X-X-X-X-XJ =X=X=X=XI.X.L.=X1   X OX=XG. .Y.=X=X=X` J.-X-X-X-X-X-X-X-X-X-X-X-X-X-X-X-X-X-X-X-X-X",
"-X-X-X-X-X-X-X-X-X-X-X-X-X-X-X-X-X-X-X-X-XJ.=X*XJ.=XG.D.=X*X+     oX=X=XH.K.I.+X=XXXX.+X-X-X-X-X-X-X-X-X-X-X-X-X-X-X-X-X-X-X-X-X",
"-X-X-X-X-X-X-X-X-X-X-X-X-X-X-X-X-X-X-X-XF *X=XOX. G.=X=X=X=XOXXXoX=X=X=X=X=X' % &X=XJ OX-X-X-X-X-X-X-X-X-X-X-X-X-X-X-X-X-X-X-X-X",
"-X-X-X-X-X-X-X-X-X-X-X-X-X-X-X-X-X-X-X-X8 =XL.1 J Z.3 I.oXXXOX+XoXoXoXXXT.c X .  .=XJ oX-X-X-X-X-X-X-X-X-X-X-X-X-X-X-X-X-X-X-X-X",
"-X-X-X-X-X-X-X-X-X-X-X-X-X-X-X-X-X-X-X-XD.I.=X%XC.F K.C.1 9 F @ U F @ I c J.+ #X=XOX..&X-X-X-X-X-X-X-X-X-X-X-X-X-X-X-X-X-X-X-X-X",
"-X-X-X-X-X-X-X-X-X-X-X-X-X-X-X-X-X-X-XE U G =X=X*X2 F =XS.I.&X_ =X+X_ =X8 Y OX=X=XX.9  ._ -X-X-X-X-X-X-X-X-X-X-X-X-X-X-X-X-X-X-X",
"-X-X-X-X-X-X-X-X-X-X-X-X-X-X-X-X-X-X) j.k.7.G.=X=X%XJ.U + G.U.J =XI.I G.+ U.=X=XT.) k.z.f 3 -X-X-X-X-X-X-X-X-X-X-X-X-X-X-X-X-X-X",
"-X-X-X-X-X-X-X-X-X-X-X-X-X-X-X-X-XJ l.].}.[.6.F.+X=X=X%XA.7 q 7 F 8 3 D.=X=X&XY.( '.|.z.Z -.^ -X-X-X-X-X-X-X-X-X-X-X-X-X-X-X-X-X",
"-X-X-X-X-X-X-X-X-X-X-X-X-X-X-X-X-Xu t X W R.[./ P F.F.=X=X=X=X=X=X=X=X=XI.F.` b '.[.l.a r.V D.-X-X-X-X-X-X-X-X-X-X-X-X-X-X-X-X-X",
"-X-X-X-X-X-X-X-X-X-X-X-X-X-X-X-Xa 8.b.;.p p z.|.'.A / ` ` `  .`  .` ] _ / / m..X[.z.a 9.t.8.5 -X-X-X-X-X-X-X-X-X-X-X-X-X-X-X-X-X",
"-X-X-X-X-X-X-X-X-X-X-X-X-X-X-Xb 1.t.8.x.b.8.a v '.|.|.6.8 F       ' , z.{. X{.W.f a 8.w.4.w.#.C.-X-X-X-X-X-X-X-X-X-X-X-X-X-X-X-X",
"-X-X-X-X-X-X-X-X-X-X-X-X-X-X-X[ $.t.0.1.4.w.8.$.S E.m.l.D.=X%X&X*X%X( '.R.E./ = : 8.t.#.N t.r.M S.-X-X-X-X-X-X-X-X-X-X-X-X-X-X-X",
"-X-X-X-X-X-X-X-X-X-X-X-X-X-X-XV w.q.c.i =.t.w.v.$.+ @ 9 =X=X=X=X=X=XK.  X : %.0.w.t.1.> q.9.8.v.e -X-X-X-X-X-X-X-X-X-X-X-X-X-X-X",
"-X-X-X-X-X-X-X-X-X-X-X-X-X-Xh r.9.q.v.i *.r.8.c.$.9  .c =X=X=X=X*X=XJ.+ 3 9.c.0.8.0.q.e w.w.9.t.*. .-X-X-X-X-X-X-X-X-X-X-X-X-X-X",
"-X-X-X-X-X-X-X-X-X-X-X-X-XK ,.r.q.8.x.i =.x.r.v.-.4 U q =X=X=X=X=X=XG.7 5 2.0.8.t.t.y * w.8.0.9.x.B -X-X-X-X-X-X-X-X-X-X-X-X-X-X",
"-X-X-X-X-X-X-X-X-X-X-X-X-XN t.9.9.8.v.i V c.&.>.h o + 9 =X=X=X=X*X=XJ.  $ 4.t.t.3.i   = 0.0.9.9.c.-.J -X-X-X-X-X-X-X-X-X-X-X-X-X",
"-X-X-X-X-X-X-X-X-X-X-X-X-Xk v.8.0.9.x.i X p r r t f E c oX=X*X=X=X=XI.J 5 8.<.p O r =.y t.0.0.0.w.1.S -X-X-X-X-X-X-X-X-X-X-X-X-X",
"-X-X-X-X-X-X-X-X-X-X-X-X-Xk v.8.9.8.v.i > *.c.c.b.j T ] 8 oX=X=X*X=XU.& = ;.p g %.v.q.O #.t.8.0.q.v.M -X-X-X-X-X-X-X-X-X-X-X-X-X",
"-X-X-X-X-X-X-X-X-X-X-X-X-Xj b.9.8.c.*.s c.x.8.8.r.h # Y U &X=X=X=X=XXXG , N g n.0.8.t.m y x.8.0.9.v.M -X-X-X-X-X-X-X-X-X-X-X-X-X",
"-X-X-X-X-X-X-X-X-X-X-X-X-X[ $.t.5.v.N m v.8.9.q.x.p w 7 ` =X*X=X=X=XXXI u h C t.q.8.c.=.i x.8.0.w.t.j -X-X-X-X-X-X-X-X-X-X-X-X-X",
"-X-X-X-X-X-X-X-X-X-X-X-X-X-X{ $.v.v.N m c.8.0.9.x.%.c + ` =X=X=X*X=XI.X &.r t.9.0.0.c.%.i x.8.0.c.k -X-X-X-X-X-X-X-X-X-X-X-X-X-X",
"-X-X-X-X-X-X-X-X-X-X-X-X-X-X-X^ t 0.C m c.8.0.9.9.x.d 9 | =X=X=X=X=X+X2 - %.9.q.0.8.x.-.i v.9.r.M -X-X-X-X-X-X-X-X-X-X-X-X-X-X-X",
"-X-X-X-X-X-X-X-X-X-X-X-X-X-X-X-X4 ,.&.s c.0.8.8.8.0.d 4 ` =X&X*X*X*XoX& N b.t.t.0.t.0.* i 0.2.@...-X-X-X-X-X-X-X-X-X-X-X-X-X-X-X",
"-X-X-X-X-X-X-X-X-X-X-X-X-X-X-X-X+.B p   * <.v.r.r.b.e   . @ + + @ + +   #.<.>.>.>.<.: X a n 5 ..-X-X-X-X-X-X-X-X-X-X-X-X-X-X-X-X",
"-X-X-X-X-X-X-X-X-X-X-X-X-X-X-X-X-X .U 2   * #.V V #.*                                 q I.-X-X-X-X-X-X-X-X-X-X-X-X-X-X-X-X-X-X-X",
"-X-X-X-X-X-X-X-X-X-X-X-X-X-X-X-X-X-X-X .                                          X   7 -X-X-X-X-X-X-X-X-X-X-X-X-X-X-X-X-X-X-X-X",
"-X-X-X-X-X-X-X-X-X-X-X-X-X-X-X-X-X-X-X-X1   X X X                         1 +         7 -X-X-X-X-X-X-X-X-X-X-X-X-X-X-X-X-X-X-X-X",
"-X-X-X-X-X-X-X-X-X-X-X-X-X-X-X-X-X-X-X_ @   + 2               X           9 +         2 -X-X-X-X-X-X-X-X-X-X-X-X-X-X-X-X-X-X-X-X",
"-X-X-X-X-X-X-X-X-X-X-X-X-X-X-X-X-X-X-XX .   1 1             X .         X 2 @       X + _ -X-X-X-X-X-X-X-X-X-X-X-X-X-X-X-X-X-X-X",
"-X-X-X-X-X-X-X-X-X-X-X-X-X-X-X-X-X-X-X+ . . 9 .             + @ .       X 7 +       . o ` -X-X-X-X-X-X-X-X-X-X-X-X-X-X-X-X-X-X-X",
"-X-X-X-X-X-X-X-X-X-X-X-X-X-X-X-X-X-X-X. . . 7 .             % + +       X 2 2 X     X o ` -X-X-X-X-X-X-X-X-X-X-X-X-X-X-X-X-X-X-X",
"-X-X-X-X-X-X-X-X-X-X-X-X-X-X-X-X-X-X-X+ . + 2 .           X @ + +       X 2 7 .       . + -X-X-X-X-X-X-X-X-X-X-X-X-X-X-X-X-X-X-X",
"-X-X-X-X-X-X-X-X-X-X-X-X-X-X-X-X-X-X+ +   7 +             . 1   @ .     X 2 7 .       + . -X-X-X-X-X-X-X-X-X-X-X-X-X-X-X-X-X-X-X",
"-X-X-X-X-X-X-X-X-X-X-X-X-X-X-X-X-X-X@ +   7 +             @ 8 J + .       @ 7 .       + + -X-X-X-X-X-X-X-X-X-X-X-X-X-X-X-X-X-X-X",
"-X-X-X-X-X-X-X-X-X-X-X-X-X-X-X-X-X-X@ +   2 @             . J L.. +       . 7 X       . . -X-X-X-X-X-X-X-X-X-X-X-X-X-X-X-X-X-X-X",
"-X-X-X-X-X-X-X-X-X-X-X-X-X-X-X-X-X-X. 1 + 8 + X           + 8 Z.. .       . 7 +   X + 1 X F.-X-X-X-X-X-X-X-X-X-X-X-X-X-X-X-X-X-X",
"-X-X-X-X-X-X-X-X-X-X-X-X-X-X-X-X-X-XK X . X + @ + + + + @ .  .-X1 + @ + + @ 9 7 @ . . X 2 -X-X-X-X-X-X-X-X-X-X-X-X-X-X-X-X-X-X-X",
"-X-X-X-X-X-X-X-X-X-X-X-X-X-X-X-X-X-X-XZ.Z.G.I X + + + + X _ -X-X-X@ . + + + . + X J G.Z.-X-X-X-X-X-X-X-X-X-X-X-X-X-X-X-X-X-X-X-X",
"-X-X-X-X-X-X-X-X-X-X-X-X-X-X-X-X-X-XJ Y E -XC.X X Y -X-X-X-X-X-X-X-X-XJ  .1 X +   C.-X-XH G -X-X-X-X-X-X-X-X-X-X-X-X-X-X-X-X-X-X",
"-X-X-X-X-X-X-X-X-X-X-X-X-X-X-X-X-XQ Q.^.~.q  .-X-X..-X-X-X-X-X-X-X-X-X] -X-X-X-X-XI @ ~ ^.!.z ' -X-X-X-X-X-X-X-X-X-X-X-X-X-X-X-X",
"-X-X-X-X-X-X-X-X-X-X-X-X-X-X-X-XQ ^.).(.(.(.p.u.-XC.D.-X-X-X-X-X-X-XZ.Z.-X-X-X-XZ.z ~.).(.(.).s.} -X-X-X-X-X-X-X-X-X-X-X-X-X-X-X",
"-X-X-X-X-X-X-X-X-X-X-X-X-X-X-Xl.u.$X(.(.(.(.).q Y 7 L.-X-X-X-X-X-X-XL.2  ._ ' U p.$X).).(.(.(._.z -X-X-X-X-X-X-X-X-X-X-X-X-X-X-X",
"-X-X-X-X-X-X-X-X-X-X-X-X-X-X-X-XO.`.^.^.^.^.^.p.; a.Q -X-X-X-X-X-X-XQ a.y.y.y.6 Q.^.!.^.^.^./.i.Z.-X-X-X-X-X-X-X-X-X-X-X-X-X-X-X",
"-X-X-X-X-X-X-X-X-X-X-X-X-X-X-X-X-X9 H H l F l ! -XG -X-X-X-X-X-X-X-XK.G L L L -XY F F G F J w O.-X-X-X-X-X-X-X-X-X-X-X-X-X-X-X-X",
"-X-X-X-X-X-X-X-X-X-X-X-X-X-X-X-X-X-X-X-X-X-X-X-X-X-X-X-X-X-X-X-X-X-X-X-X-X-X-X-X-X-X-X-X-X-X-X-X-X-X-X-X-X-X-X-X-X-X-X-X-X-X-X-X",
"-X-X-X-X-X-X-X-X-X-X-X-X-X-X-X-X-X-X-X-X-X-X-X-X-X-X-X-X-X-X-X-X-X-X-X-X-X-X-X-X-X-X-X-X-X-X-X-X-X-X-X-X-X-X-X-X-X-X-X-X-X-X-X-X",
"-X-X-X-X-X-X-X-X-X-X-X-X-X-X-X-X-X-X-X-X-X-X-X-X-X-X-X-X-X-X-X-X-X-X-X-X-X-X-X-X-X-X-X-X-X-X-X-X-X-X-X-X-X-X-X-X-X-X-X-X-X-X-X-X"
};
