/* XPM */
static char *_a9886c7ef524f29b6f407f1c9ce43c7LOSJacGBt5wFdqIf[] = {
/* columns rows colors chars-per-pixel */
"64 64 253 2 ",
"   c None",
".  c #381E16",
"X  c #2A1C19",
"o  c #3B2219",
"O  c #2F211E",
"+  c #3C2723",
"@  c #1D1715",
"#  c #492818",
"$  c #562A1D",
"%  c #5A351D",
"&  c #4D2F13",
"*  c #67281D",
"=  c #66371A",
"-  c #75231F",
";  c #492C25",
":  c #552B21",
">  c #5A3627",
",  c #563B35",
"<  c #4B382E",
"1  c #643423",
"2  c #693927",
"3  c #763927",
"4  c #6B372D",
"5  c #511A19",
"6  c #2F4E0C",
"7  c #3D6410",
"8  c #514E1A",
"9  c #754418",
"0  c #476C14",
"q  c #4A7715",
"w  c #537117",
"e  c #62771F",
"r  c #5C4436",
"t  c #69412C",
"y  c #7A452B",
"u  c #784737",
"i  c #6F5234",
"p  c #6D6C24",
"a  c #765047",
"s  c #87392C",
"d  c #923531",
"f  c #A72925",
"g  c #B63A37",
"h  c #AE332D",
"j  c #9B221D",
"k  c #C23D2C",
"l  c #87482B",
"z  c #824A35",
"x  c #874936",
"c  c #984B37",
"v  c #8C5737",
"b  c #995538",
"n  c #8F532A",
"m  c #B84539",
"M  c #A75B38",
"N  c #AD503A",
"B  c #976333",
"V  c #A7633B",
"C  c #B8673A",
"Z  c #BB7935",
"A  c #AD702C",
"S  c #8F541B",
"D  c #D14F30",
"F  c #E6573D",
"G  c #CD7638",
"H  c #CA6D3B",
"J  c #F8613F",
"K  c #8A5647",
"L  c #995B46",
"P  c #905248",
"I  c #A55A46",
"U  c #B64C46",
"Y  c #9A664B",
"T  c #926A52",
"R  c #AA6845",
"E  c #B76B46",
"W  c #B87648",
"Q  c #A56A52",
"!  c #B87A58",
"~  c #B07256",
"^  c #B27963",
"/  c #A56563",
"(  c #C44A46",
")  c #ED5B43",
"_  c #C77545",
"`  c #D47048",
"'  c #EB6847",
"]  c #F36B4C",
"[  c #F7784D",
"{  c #EC7655",
"}  c #F47A55",
"|  c #E7734A",
" . c #C97A69",
".. c #F17F61",
"X. c #578718",
"o. c #578C18",
"O. c #65961B",
"+. c #698F1D",
"@. c #73A61E",
"#. c #70A51D",
"$. c #6C9922",
"%. c #759A24",
"&. c #74A422",
"*. c #7BAB24",
"=. c #7AA626",
"-. c #7CB422",
";. c #90902E",
":. c #B9883A",
">. c #AD9135",
",. c #85A928",
"<. c #84B424",
"1. c #8AB828",
"2. c #94BB2A",
"3. c #95B531",
"4. c #AAB336",
"5. c #D99712",
"6. c #E3A31E",
"7. c #D98C2C",
"8. c #DD942D",
"9. c #D08A37",
"0. c #E3962F",
"q. c #E39833",
"w. c #E5843C",
"e. c #CAB231",
"r. c #E6AD2B",
"t. c #E7A537",
"y. c #EAB636",
"u. c #F0B93F",
"i. c #DFA11C",
"p. c #9AC42B",
"a. c #96C329",
"s. c #9DC333",
"d. c #A6CC2D",
"f. c #ADD32C",
"g. c #A8CA35",
"h. c #ADD235",
"j. c #B3D434",
"k. c #BBDA3C",
"l. c #B8D638",
"z. c #BEC935",
"x. c #C2DC3B",
"c. c #CDCD39",
"v. c #EEC93A",
"b. c #C8E23C",
"n. c #D2E73F",
"m. c #B58F45",
"M. c #B4BC4E",
"N. c #BB8770",
"B. c #95A248",
"V. c #C38947",
"C. c #DB8649",
"Z. c #DA975A",
"A. c #CE8E53",
"S. c #E48944",
"D. c #EA984A",
"F. c #F8875A",
"G. c #E79B56",
"H. c #F99D5B",
"J. c #F08A50",
"K. c #CEB050",
"L. c #E8A847",
"P. c #F4A74D",
"I. c #EDB546",
"U. c #EBA759",
"Y. c #F4AB53",
"T. c #F3A85A",
"R. c #EBB55C",
"E. c #F4B25D",
"W. c #F6B658",
"Q. c #F2BC47",
"!. c #CD926C",
"~. c #EB8869",
"^. c #F58A66",
"/. c #E79766",
"(. c #F99467",
"). c #F69A76",
"_. c #EF9273",
"`. c #D7A775",
"'. c #D7A868",
"]. c #E9A967",
"[. c #F4AC63",
"{. c #F5A969",
"}. c #EEB46B",
"|. c #EDB365",
" X c #F4B464",
".X c #F4B868",
"XX c #F8A679",
"oX c #ECB777",
"OX c #F4BC73",
"+X c #F3B678",
"@X c #E9A975",
"#X c #B7CE43",
"$X c #B7D643",
"%X c #B3CA4C",
"&X c #C4DC47",
"*X c #CEDB54",
"=X c #F2C948",
"-X c #F4C656",
";X c #F3D64F",
":X c #CCE448",
">X c #D6E94A",
",X c #D7EA57",
"<X c #CEE554",
"1X c #F8E45E",
"2X c #D2CC67",
"3X c #F5C46A",
"4X c #F7C775",
"5X c #F0D571",
"6X c #F9E76B",
"7X c #F9EB77",
"8X c #EBF171",
"9X c #DAEB67",
"0X c #D74589",
"qX c #E97ABB",
"wX c #E36AAD",
"eX c #E158A1",
"rX c #EE7BC3",
"tX c #BF9583",
"yX c #DAB085",
"uX c #F7AA89",
"iX c #ECBA88",
"pX c #F5B989",
"aX c #F1B493",
"sX c #E68CBB",
"dX c #EBB0AA",
"fX c #D9A49F",
"gX c #D8D488",
"hX c #F5C688",
"jX c #F4CA9B",
"kX c #F5C796",
"lX c #EFC690",
"zX c #F4EF85",
"xX c #F5C9A4",
"cX c #F5D8B9",
"vX c #EECDB0",
"bX c #D5E385",
"nX c #EA87C4",
"mX c #EA96C6",
"MX c #EF98D1",
"NX c #EAB4CF",
"BX c #F2A7D6",
"VX c #F3BBDA",
"CX c #ECACCE",
"ZX c #F2C9DA",
"AX c #F2D9D7",
"SX c #EECDD2",
"DX c #F2E5D0",
"FX c #F6D8E5",
"GX c #F7CFE5",
"HX c #F5E4EA",
"JX c #F8E8EC",
"KX c #F8EDF1",
"LX c #FBF4F6",
/* pixels */
"                                                                                                                                ",
"                                                                                                                                ",
"                                      cXvXcXcXcXxXkXjXcXDX  2X                                                                  ",
"                              DXDXcXjXhXkXjXkXjXkX+X XkXjX+X.X+X                                                                ",
"                          DXvXxXkXjXkXpXhXOX+XOXhX{.T.{.T.pXT.{.+X+XjX                                                          ",
"                        DXcXkXpXpX+X+XOXOXhX4X3X[.E.T.T.T.E.[.+X+X+X+X+XpX  f.n.                                                ",
"                      cXvXkXpX+X}.[. X+XhXjXxXkXW.T.T.T.E.[.hX+XpXT.J.{.+XaXM.&Xb.                                              ",
"                      lXiX+X}.].T.H.T.W..X-X3X.XW.W.P.W..X.XOXP.[.Y.P.T.{.G.[.2Xx.k.                                            ",
"                    iX@X@XU.U.D.D.U.U..XR.Y.R.|.}.R.L.Y.P.E. XP.Y.E.P.{.hXT.T.iXK.j.x.                                          ",
"                    lX@X'.U.].|.'.oXyXyX'.'.Z.'.Z.`.].}.D.|.|.R.}. XE.P. XT.{.T.].M.      g                                     ",
"                  iXiXiXiX`.`.!.m.! W R V b M M V V V W C A.'.A.Z.U.oXP.P.W.}.T.G.U.M.                                          ",
"                  yXyX`.!.m.W B B v l z y y y y l y l y l v M V V m.A.Z.R..XOXoXG.[.'.2.<.                                      ",
"                  yX!.! R R B v p p t 2 1 1 : 1 2 2 = 1 = 3 s 3 3 l n M W '.oXhX}.T.G.3.,.2.  D g                               ",
"                    ! Y x y v y 8 7 0 % 8 8 # # $ * # w p * - * 3 d 3 = 3 l R A.oXOXP.M.m.V.j.e.                                ",
"                        ;.;.+.p w 6 6 6 w 0 6 8 = : o e o.% 8 l d s $ % 1 1 2 l W Z.].M.;.>.d.x.                                ",
"                      %Xs.3.3.,.X.X.o.q O.$.q X.e 3 p $.o.8 w i - & & 8 8 $ % 2 c M W I ;.p.a.f.                  g             ",
"                n.n.:X$X1.&.1.g.s.a.=.=.*.=.X.=.%.p ,.#.O.O.o.O.%.X.+.*.%.8 > s U ;.A g R 2.f.k.>X                g             ",
"                >X>Xb.x.l.a.s.k.j.g.s.3.7 0 =.3.X.X.+.O.o.q X.=.=.&.=.1.*.&.B >.M.1.;.I g >.:XbXDXHX                            ",
"                >X,Xk.d.-.=.$Xp.&.*.9XB.6 7 ,.%.,.,.g.,.X.0 $.&.o.O.=.%X=.=.1.h.h.-.a.3.>.2XbXAXKXKXAX                          ",
"                :Xb.l.1.-.3.:Xp.O.q 3.w 6 O %.,.l.j.*Xg.#.*.1.$.o.7 7 $.X.X.s.&Xg.,.=.h.2XDXeX .DXHXVX  f g                     ",
"            g h :Xk.h.s.1.2.x.a.O.X.0 +.O.,.d.w 2.h.x.#X<.#Xh.&.o.X.=.#.O.+.s.,.3.4.3.$XzXfXd W bXSXNX    U                     ",
"          ( g m K.l.j.j.d.l.f.a.a.<.@.,.h.#X+.6 6 X.x.$Xg.$Xh.*.X.&.f.g.f.b.#X&.s.a.-.$X9XvX    NXmXNX                          ",
"  f       U   ( 9.z.>.f.j.:Xb.l.d.a.@.+.<.e 0 0 6 6 3.$Xa.a.2.a.1.a.s.f.<X,X<X&.-.-.<.l.<X    NXmXsX                            ",
"  g                 V 4.<.l.>Xn.f.<.o.<.<.o.o.O.q 7 3.s.1.<.@.a.j.f.a.h.=.$.g.a.O.#.a.d.    dXwXsX                              ",
"                    d   ,.4.c.h.2.1.1.2.1.s.2.a.#.+.d.2.1.<.#.a.k.j.l.f.o.X.*.3.=.=.h.gXVXMXwXeX                                ",
"          h (           N m >.,.+.d.<.@.=.#X:Xb.d.&.=.<.1.2.a.f.k.k.:Xk.1.1.s.$X<X<X,X5XdXsX                                    ",
"                        h h :.3.+.d.p.<.o.%.:Xl.k.k.2.s.p.s.k.#Xs.$X:X<X:X&X$Xh.$X<X&Xv.-X                                      ",
"                      h f h 4.g.p.j.f.p.  <.d.O.,.&X<X<X&X:X&X&.o.$.s.<X,X9X,Xk.1.z.K./.oX`.U ,                                 ",
"              r.5.  m ( ( ( U 4.j.x.f.f.  d.f.i.e.c.:Xj.j.x.#X1.&.O.=.g.&X,X8X&X*XZ._.XX).aX/.i , r                             ",
"              Q.t.        g ( fX*Xx.d.    z.c.y.r.8.e.f.3.m.4.3.4.>.;.>.#X<X8XR.{ uXuXXXuX).].3XT r /       t.                  ",
"            g C.          k   MXdXc.c.v.v.y.v.v.y.y.4.f.>. .4.*XaX@XG.C.9.C.|.J.] uX(.{ (.^._ m.K.B./       t.t.I.              ",
"                  uX    6.6.i.oX-Xv.v.;X;X;Xv.v.v.c.4.x.K.aX}.+XjX{.F.J.^.H.~.F k ' { } ^.' 4 , , T T yX0.0.y.                  ",
"                ).uXuXxXW.v.y.;X1X7XzX7X7XzX7X6X6X}.@XH.{.XX(.H.H.[ J.H.(.F.) h k ) ^...] m d P a a ^   q.q.y.                  ",
"              _.).(.pXdXaX-X6X7X7X7X7X6X7X8X5X7X5XXXaX(.(.XX(.J [ F.H.J.[ D f D { F.} ` d 3 L ~ ~ / N.  7.                      ",
"              } _.} (.xXhX7XzX6X1X    I.V r < r W ).pX).(.XX(.J.F.F.[ J k j f F ' ` N , r P U U ^ N.N.A.q.                      ",
"                } D.D.kXzX6X5X      I.T < O O + , ` (.).^.F.F.[ [ J F k * 5 * s 3 2 , 4 K c ( U u m.! 9.t.                      ",
"                ] q.D.4X1X{.aX      R i a , ; + + , ` ] ) ) ) F D H G n @ @ . ; ; z L I L 3 T tXT L A.L.                        ",
"      5.          J.W.;XS.{ _.uX    N.^ ^ K a a a + ; : 3 c G | 9.y.V.: . . > 4 2 u I ~ x x Q N.K K L.u.                L.      ",
"      6.Q.          -XP.{ ) ^.uX    Q Q K T a , , X @ X : 2 Y 2X1X5Xi z P 3 x 4 > u x R s z b Q Y m.=XL.                        ",
"      y.            =X' ] } ^.(.    T N.N.K a K u L a , 4 b t i gXT 4 I R L Q v y 2 * 4 : : 2 3 G t.-Xt.q.t.y.I.                ",
"                    I.0.G F ' | 9.a a P P ^ !.!.! I P 3 3 b 2 O r > 2 x ! I I I s l 1 . . 5 > A 7.0.I.8.I.Q.-X                  ",
"                    Q.I.0.7.8.7.Z a K x x P  .!.R 3 l Q ! Q 4 # . & 3 b E b s c = * 1 * o = A 0.0.8.y.t.Q.                      ",
"                I.-X-X  t.t.D.  W P v z u c b z 3 u z I N.! L u 1 : 1 x l 1 # * $ # = 9 S A q.q.0.w.u.                          ",
"                        0.      A L 4 u K Q z z Y I 3 4 x x : $ 1 : # $ # 5 # & = B !.!.!./././.  q.L.7.t.                      ",
"                8.    L.8.    i.7.v 1 # r K 4 x x 4 1 : $ $ . . # ; . # & = 9 S H /.).(.+XU.).~._._.                            ",
"        I.-X    t.8.        I.y.  :.y X : : + < : # $ # . . # & & o . & 9 A A Z S.^.^.^.I.t.uXuX_.~.~.                          ",
"                            t.    G 9.B 9 = % < O # o # # & & & & & $ 3 S C C C ` } ^.' | T.pXuX(.(.^.~.                        ",
"              t.                G C.A.m.9.A B S % % 9 9 & # & % 3 l b C ` G H H G.~.^.' F ' F.(.] ] { _.                        ",
"                            aXyX}.'.Z._ m.W B :.A 9 8 1 % 1 y l V C _ 8.9.` Z.}.4X}.] ] } ) F F ' F ^.^.                        ",
"                        HXFXJXKXJXHXvX!.E b i V S t y y b b M H _ ` Z.I.D.|.hX4X.X XD.' ] } F.F.F.~.~.F.                        ",
"                      JXLXLXLXLXLXLXLXHXSX!.R n l n n b M C _ H _ C.].5X3X3XW.R.Y.U.D.S.] [ [ [ } } }                           ",
"                    ZXKXLXLXJXAXDXFXHXKXKXHXdXW E E _ C C C.Z.].4X4X3X.XY.U.D.D.D.L.t.      t.w.                                ",
"                    ZXJX      hXiXiXvXAXHXHXKXdXZ.Z.Z.U.|.4X4X3X3XE.Y.U.D.D.S.w.C.L.r.      =Xr.                                ",
"                    CXFX      hXlX4X}.oXvXAXHXFXaX4X4X4X3XI. XE.T.Y.D.D.S.S.S.C.              r.                                ",
"                    mXZX        hXhXhXOX}.oXvXGXSX+X X3X3Xy.R. XU.D.D.S.C.S.                                                    ",
"                    nXCXHX        lXlXoX}.|.].vXFXiX.X.X}. XT.U.G.D.G.G.                                                        ",
"                    nXmXVXHX        xXkXhX+X}.+XSXaX].}. X}.].].G.                                                              ",
"                      qXqXVXJX          jXjXiXiXSXdX}.}.                                                                        ",
"                      rXwXmXGXHXKX            AXCX                                                                              ",
"                        nXMXVXZXGXKXFXGXFXVXCXqXwX                                                                              ",
"                          BXBXBXBXVXMXrXrXeX0X0X                                                                                ",
"                              BXBXBXrXwXeXeX0X                                                                                  ",
"                                      nX                                                                                        ",
"                                                                                                                                "
};
