/* XPM */
static char *fd42b272bd0b486ecb9a3f265ebca3c4W5QFbtGu3UaDUSS6[] = {
/* columns rows colors chars-per-pixel */
"64 64 43 1 ",
"  c #97704C",
". c #9B744D",
"X c #9E784E",
"o c #9F7A52",
"O c #977759",
"+ c #9C7A5A",
"@ c #A47B4E",
"# c #A57D53",
"$ c #A97E53",
"% c #A37E59",
"& c #A68156",
"* c #AA8255",
"= c #A5825B",
"- c #AB855B",
"; c #AE895E",
": c #B1875D",
"> c #B28B5E",
", c #A68361",
"< c #AA8761",
"1 c #AE8B63",
"2 c #AF8E68",
"3 c #B28D63",
"4 c #B88F63",
"5 c #B18F69",
"6 c #B59165",
"7 c #B99266",
"8 c #B5936A",
"9 c #BA966B",
"0 c #BC996D",
"q c #B69671",
"w c #B99671",
"e c #B69873",
"r c #BC9A72",
"t c #C1976D",
"y c #C29B6E",
"u c #C39D72",
"i c #C99F72",
"p c #C19F78",
"a c #C8A06F",
"s c #C5A175",
"d c #C9A275",
"f c #C4A179",
"g c #CAA479",
/* pixels */
"w8qw8686366000866321;168>>>>:;**1;56888888888533:>9r0uy088808986",
"8909563>--6r96687>;6612866>>>;*;-345wqww088077;4340fsdsdrw000090",
"889966>6>-6s0066;&>311286>7907:634418q9q88809834619pfersrw009rr0",
"q99w0906>6>00666*>9288887>997y6997t6rw6688866633416rrr0rw0866966",
"wrrr8697>;11---&12;168867976>;*&$:rrrew09yr0yu008808086639000r0s",
"0uss66>>>>356;;;<2<13883>636>*=&$-8700060rffudsrwr0000006asysfsp",
"ddsfr9646>6;###&;<=,285233;=;=..#*55q55320pfwrrrrr09r900rrre0spp",
"96896667>611*#**=2=1500882231;&=<1885,*1288088886<38986669888e98",
"51>>>4799us0r000996670a0tyuysfusrre2-==1==,=&==,%O3y0ty00dsrf079",
"1>36369889r808836>>79yaadidydgfffrq1->;>-*3133<-%=7dyddidgggfp96",
"855>43886rs0008663386sy00yyaydfspqq3>7>67>356;3-%%8tyy0dyufffr94",
"3<588808w000erw88888966258999861<-31567>--3>63>>34>>338808988813",
"358550yuuutrfrwr00000999680e868611-<4554**>*009647753588997553>-",
"9w9w7ydyusddsssrr000000r09qer0r9>43474374766097>57665886999564>>",
"90wr000900u00r0886897686888q0rru90tt007779986666666151889w09974>",
"09976666866811122280608616q82218744474313ws0s09096668908w9538w85",
"rtd07969r99983;1188pwrr97761&<0008>6666>8rr6068666>79ruer07778;-",
"00t000y000975551<18perr9->841689766666836rsre0866>679rperr7-665;",
"88866790074>331112887996>>>616166731615518w88886616229779991>55>",
"4663>>6>>>353388888869t90996699975=&<8518858e836>660366>>9sr009t",
"4>>4>3161364457888800wwdy0069000933<1688q228ew56709e6679t5589956",
"8777>621<14>;4790880900800900900851366688288r0677690666655591<13",
"97763686w731698821822626866676;=%*<11288qq821<15>>66>;&-33885559",
"duuyus00r778851-2889rr099000r0&@..=-,1111882=%<6>6>:>--1-155wq85",
"uruyyprrr04575>-5e998099y00rre*&==->6>666881511843479>:3>443wq8<",
"00w09u99w03&35>128026668998988;&$*;;6>66686>--177370yt597475w988",
"888609776866688989266;66ere9886661<296>>3;>-=3<45wq578q799753;36",
"880rtyd00869w88009266>*-9066666*1661886>>3>:--:558ew0w979974>446",
"9w9wwr0000t00989008636->9s096;&;>31129;>77t>>44435w898788886>663",
"88581366699088990e087>3>69666;;266688967t9y74t79t9w88688886663>>",
"96>>13318r0wrwrpw08696>11;-*-=2;116086676>>-$$$4prrr09wuurdr009y",
"867>6>616iyuiu0pfw6>>4>3666;-;1111286;6634;*%$#4498987rfssyssiyt",
"0666;11-6aryssssfs87>7366*X&&&;==<288231-==o o#<8581337pppwpu0ui",
"3;1<186169698009r86666362>*-;;11-80088623663-<18q5<%<12586288511",
"2808rfpdssr09990089896efr0r09097669yyyarutdfpfrr8-<%<1&&=#====+O",
"66w0wfsuysrrr0000000090r08866>>3670yayddiiggffpe83-3>1->31511-%,",
"6368e0seerre98899880088ur0e06863688a090yiyudppr88345447>463;3$%%",
"1121<&=1;;===,<<=&=080e00000e88888976666q87533-->1576;--;-=#:455",
"w0q1-;-1*&<-=<*-==,ryrsuesfr00r000079996eq5853>;-3757>$;-#&&5pww",
"8896-13>3-66753:&&1sysrfasffrr090090r0e9qwu0u467347<477966>-7rwq",
"q833666>61;;1;;1==-67890090e6822888866688r00ut800906699e66616885",
"7-&;;*&&=6;-=;-46821888898;3122809707626e222696747766;26>>66660e",
"7>*>;*&&>91;6-6762660w80963>>;25rrrr97962-&60006>666618;;66:;696",
"690y883;0s0697776663688076632;22rrrr0>-76118696667662623>>-6;;69",
"8666>1216096779096668886>>322122996966>>31366662>32;63288826>>66",
"e2166886666667676790976;>66789608660000996799861&=22228220r6666>",
"288888817776>700**6;:73676>79888err0yay0979ye06>113698812e066799",
"e8826111>>77>769-;>**>7>>>>69968888e99990000r06;126888868wy64466",
";1<1>1;==2r090099776666222666686662636966882=##-1;12888e821;2862",
";;=;11;;;8fsasau0sa99908868896699er0000990r6&o #=1;2118821==2fr0",
">;=;;111;3ufr0rsruy96990888900009999900000r6@&$=;>236188211;2e00",
"=====;66>60rre8080962988096889982;6669999883*&*->>66688862118862",
"80090880ysayf03>>366089888588611-&-;>>>>95215656889rr8666669e90e",
"000000r0ds0ffr664>6798890ree36>;;;;6>>6681;24::7686806*;33369962",
"000900errr0fs9;66378888888ee166>4>7097;68231;>**>890r6;>66289988",
"6688668880ere6>>3186889886000077067079699888861-666696>>69e0009e",
"ru0uyy06899e9000wrdd0ss99rrwrt-@@*;>>6>66883;;21*-*;1;;>6676rupe",
"fsgi0yu9y09000re0uuysfr9399985-#&&-;66662881211<-;>4663>>>>9sfr0",
"ppre00r99990890rrprrfse1312q55*o  &==;112881=%,=#@XX->>67790fssd",
"89w888w7666992=<551311612%=18725>36666888008316;>;-3666604>>7668",
"970psfduyyita6O&-%====&&1%%-<9rppfddrasyyy076770099u0ur9076>>>16",
"59dfdggidiiid7+=:-3535*>:33:5wrfdggdsddyaay973>135600re8867376;1",
"660rpu0iyy97t3=-:3:333363445798rppdtiy070t0886168090ru088663>166",
"31888088961>>4633348>>-->734-3=-;3888966666898088wwrr0rww09888<1"
};
