/* XPM */
static char *_ba1a16a051448fffd558906505fff081POoymQfDupdvB2u[] = {
/* columns rows colors chars-per-pixel */
"64 64 230 2 ",
"   c #1D0A0B",
".  c #250D0D",
"X  c #290A0B",
"o  c #330D0D",
"O  c #3A0B0C",
"+  c #2C1213",
"@  c #2D1919",
"#  c #281617",
"$  c #331314",
"%  c #3B1414",
"&  c #331618",
"*  c #3A1719",
"=  c #341A1B",
"-  c #3C1B1B",
";  c #371917",
":  c #370F10",
">  c #3A211F",
",  c #3A1F21",
"<  c #3D2322",
"1  c #3A2C29",
"2  c #3B312F",
"3  c #3D3836",
"4  c #2F2423",
"5  c #430F0F",
"6  c #431415",
"7  c #4B1515",
"8  c #431718",
"9  c #431B1C",
"0  c #4B1C1C",
"q  c #4A1719",
"w  c #541514",
"e  c #531C1C",
"r  c #5A1C1C",
"t  c #561717",
"y  c #500F0E",
"u  c #631D1B",
"i  c #661A18",
"p  c #741C1B",
"a  c #47211F",
"s  c #59201E",
"d  c #64201E",
"f  c #6A221F",
"g  c #74201E",
"h  c #441F20",
"j  c #4B1E20",
"k  c #521F20",
"l  c #581F20",
"z  c #442323",
"x  c #4C2323",
"c  c #442927",
"v  c #4C2826",
"b  c #442B2B",
"n  c #4C2C2A",
"m  c #492728",
"M  c #532423",
"N  c #5B2424",
"B  c #5C2827",
"V  c #542C2B",
"C  c #5B2C2B",
"Z  c #542827",
"A  c #4D312E",
"S  c #45312F",
"D  c #53302E",
"F  c #5B312E",
"G  c #4B3533",
"H  c #4B3936",
"J  c #4C3D3A",
"K  c #473735",
"L  c #533432",
"P  c #5C3533",
"I  c #533A36",
"U  c #5B3936",
"Y  c #543C3A",
"T  c #5C3C3A",
"R  c #583738",
"E  c #552F31",
"W  c #632524",
"Q  c #6B2422",
"!  c #642926",
"~  c #632C2B",
"^  c #6B2D2C",
"/  c #6B2A26",
"(  c #732423",
")  c #722A26",
"_  c #7B2A26",
"`  c #732E2C",
"'  c #7B2E2B",
"]  c #7A2724",
"[  c #63312E",
"{  c #6C312E",
"}  c #74312E",
"|  c #7C312D",
" . c #633533",
".. c #6B3433",
"X. c #643936",
"o. c #6C3936",
"O. c #643C3B",
"+. c #6B3C3B",
"@. c #623739",
"#. c #733533",
"$. c #7C3532",
"%. c #743A35",
"&. c #7B3935",
"*. c #733D3B",
"=. c #7B3D39",
"-. c #6D2F30",
";. c #49413E",
":. c #56413D",
">. c #5B413D",
",. c #64413E",
"<. c #6C423E",
"1. c #73413E",
"2. c #7C423D",
"3. c #593F40",
"4. c #324144",
"5. c #4C4643",
"6. c #544441",
"7. c #5B4542",
"8. c #554845",
"9. c #5C4A45",
"0. c #5D4E4A",
"q. c #534C49",
"w. c #5C524E",
"e. c #5A5552",
"r. c #634542",
"t. c #6C4442",
"y. c #634A45",
"u. c #6B4A45",
"i. c #644E4A",
"p. c #6B4D4A",
"a. c #734442",
"s. c #7A4543",
"d. c #734945",
"f. c #7B4A45",
"g. c #744D4A",
"h. c #7B4E49",
"j. c #64514D",
"k. c #6B524D",
"l. c #73524D",
"z. c #7B534D",
"x. c #7E5047",
"c. c #655553",
"v. c #6C5552",
"b. c #645A55",
"n. c #6C5A55",
"m. c #655D5A",
"M. c #6C5E5A",
"N. c #745652",
"B. c #7A5552",
"V. c #735A55",
"C. c #7C5B55",
"Z. c #745E5A",
"A. c #7B5E59",
"S. c #6D625D",
"D. c #65615D",
"F. c #74625D",
"G. c #7C625D",
"H. c #7A6057",
"J. c #6D6561",
"K. c #6D6B68",
"L. c #746562",
"P. c #7B6561",
"I. c #756A65",
"U. c #7C6A65",
"Y. c #746D69",
"T. c #7B6E69",
"R. c #7C726C",
"E. c #77716D",
"W. c #7C7571",
"Q. c #777875",
"!. c #842C27",
"~. c #87322C",
"^. c #843632",
"/. c #843A35",
"(. c #8C3B35",
"). c #823D3A",
"_. c #8A3E3A",
"`. c #8C3631",
"'. c #953D36",
"]. c #84423D",
"[. c #8C433D",
"{. c #96433B",
"}. c #AF493F",
"|. c #834541",
" X c #8B4642",
".X c #844A45",
"XX c #8A4B45",
"oX c #834E4A",
"OX c #8B4E49",
"+X c #964D45",
"@X c #83524D",
"#X c #8B534C",
"$X c #8D584F",
"%X c #92554D",
"&X c #9C544B",
"*X c #855651",
"=X c #835A55",
"-X c #8B5A54",
";X c #835E59",
":X c #8C5F59",
">X c #8A5651",
",X c #935C54",
"<X c #985A52",
"1X c #A44C41",
"2X c #A75951",
"3X c #83635D",
"4X c #8A635D",
"5X c #94645C",
"6X c #836661",
"7X c #8C6661",
"8X c #836A63",
"9X c #8A6B64",
"0X c #846E69",
"qX c #8B6E69",
"wX c #946B63",
"eX c #986B64",
"rX c #84726C",
"tX c #8B726C",
"yX c #92746C",
"uX c #847672",
"iX c #847974",
"pX c #8B7B74",
"aX c #8A7C78",
"sX c #917C76",
"dX c #A6756B",
"fX c #89817C",
"gX c #94827C",
"hX c #7C8280",
"jX c #958982",
"kX c #938C86",
/* pixels */
",X+X7XV.a.h.t.@.r.d.g.N.0XC V o.4X@X5XeXeX2XOX,X#XwX0Xs.h.z.Y.+.oX XXXXX|.XX&.;XH c a Y @X[.XX].[.XX2.1.s.V.v Z X.4X$X#X#X$XOXf.",
"X.o.=Xv.,.a.T n E t.O.r.P.m E *.4X=X5XyX4X$X#X-X@X5XA.*.a.a.U.@.@.*.h.h.s..X2.=X7.D A j.oX[..X].$.=.|.@X@Xv.v V O.9X@X*X$Xx.@X@X",
"Z ~ z.3.+.+.R n E E E R V.h M ~ l.f.$X5X.X.X].oX.X@XB.*.-.@.F.V ~ @.<.d.f..X].=X:.F P p.].[..X X/.| ]. X Xp.z V 1.9X2..X#Xf.f.@X",
"i.V.Y.E.9.G b b 2 S 1 S I.6.6.0.R.F.3XH.H.G.F.n.n.W.F.7.3.0.W.3.G T ,.T >.,.U V.6.G I 0.9.>.r.l.d.,.d.z.C.n.S I :.8Xl.k.U I I ,.",
"G I T t.A.T.Z.P.L.U.V.B.v.i.k.V.3XG.G.c.F.b.M.e.8.n.P.i.0.c.c.j.e.G.0XrXD.c.9XtXG.N.Z.Z.V.c.D.L.K.n.c.b.k.n.Z.B.N.qXtXI.n.v.S.S.",
"W W / ! $.qXt.+.v V.f.XXOX.X XOXOX&.5X4XOX>X*XN.^ s.s.+.*. XOX|.A.h.@X4X3X>.oX#X*.*.*.+. .r.k.#...%.k.T a.<.<.s.1.f.a.V.,.F X.l.",
"C ~ ~ ..*.qXa.3.c Z.oX|.XX#XOXoXoX2.5X9XOX@X*XA. .+.O.@.@.*.s.2.A.,.f..XC.u.a.a.@.P V v R p.V.%.%.{ G.>.O.a.a.a.+.f.1.H.,.[ [ 1.",
"k k N ~ ~ P.E E # 9.F B { ~ ~ o.2.&.].4X[ +.2.A.j x V X.M E ~ C C.[  .2.3Xd.2.f.+.L z c n T z.` ! N r.n X. .~ P X.X.X.N.X.[  .1.",
"Z.G.G.v.i.W.Y.Y.D.K.J.U.P.Z.Z.N.p.3XtXjXqXpX6XuXj.i.k.A.V.v.N.3XuXn.8XgXkXc.g.l.u.t.:.U G i.Y.v.p.i.M.J >.>.>.y.u.u.6.G.r.n A y.",
"B.N.P.B.a.t.t.P S H r.k.uXi.p.N.F.B.-X:X;Xg.t.p.p.F.aXM.P.A.R.;X=XC.B.k.B.C.C.aX0XG.3XgX0XA.N.n.F.Z.3XB.N.G.V.V.3XyXwXwX7X=XA.3X",
"E l p.+.` _.).).` -.-.C G.|.s.*.7XX.^.^.(.(.| $.( <.;X*..X1.3X&.).$.=.s..XOX-.V.@X[ M <.d.a.s.%.....a. .u.u.M N s.d...OX Xs.|.s.",
"V j y.t.-.#.*.#.-... . .P.*.*.*.;X@.*.%.=.).=.&.).a.A.s.1.<.A...o.o.O.a.<.a.%.V.1.Z M ,.h.@.@.F V E n n >.d.C ~ a.l.%.*..Xs.*.t.",
"j * i.g.~ B ~ -.l B ~ k Z.E Z -.A.P =.).*.#.^ ^ ` +.A.@.+.a.G...#.~ F a.%.a...Z.o.M B <.t.X.D c m m z h >.>.M V a.h.*.o.[ C E [ ",
"3.K M.M.N.j.r.N.N.k.p.y.U.0.9.3.Z.c.y.N.N.k.i.i.l.L.K.3.p.Z.U.6X6X6XZ.A.G.G.Z.iXF.r.r.Z.9.:.:.:.6.6.7.7.n.F.i.j.P.k.r.p.r.Y K Y ",
"` -.-.k t.0XT L R A.).).).#.*.#.+.#.A.;X7X:X;XP.oX X|.s...*.X.d.aXv.A.A.6X7X-Xh.<.,.,.<.O.,.P.z.g.z.6XO.2.XXOX.X>X@Xs.8XN.p.g.6X",
"-.#.~ h ~ N.- , h u./ -.$.#.^ -.a.[.h.h.s.=.*.A.-.$. X[.).).).2.tXt.,.O.z.d.$...C Z C C V P 3X..[ B B. X[.[._.]..X1.~ B.t.Z k t.",
"l e M q C i.* h x u.~ -.{ ..^ ..=.^.d.x.@X2.@XH.l -.*.^ ^ ` &.].yXX.F X.=X@X%...C v x V V X.l.! ~ s l.2.} } [ ! o.[ ^ l.U a s l.",
"E E n n G L.J S 3.8.c x V V  . .*.1.H.l.x.f.4XT.x +.d.@. .V v F rXI > F C.l.[  . .P L A A >.0XI c c F.s.{ [ C F X.F L H.S ; > l.",
"Z.v.S.Y O.=Xg.N.;XC.t.v.M.C.G.Z.T.qXtXV.k.k.V.G.j.rXP.A.G.F.6X6X9XG.F.G.tXwXU.H.wX9XtXF.l.H.yX6XC.B.9X9XF.V.k.j.S.qX3XyX3XH.V.9X",
" X X=XM W ' $.^._ ' `. X7X X&X X=X].OX#X2.2.%.&.o.6X*Xh..X3XXX1X1X&X+X<X$X].z.5X2X#X&Xz.).'.{.[.(.^.| } i.[ B 9 U *X].&X<X<X%X].",
"*.o.B.B ! ^ ^ ..! ! } =.g.).+X|.@X1.2.XX].].].[.).4XB.d.2.H.{.{.{.{.[.[.].1.1.*X2X|.=.d./.).[. X]._.)...y.C Z s <.$X2.].].].2.1.",
"x Z @.N / #.^ ! Q Q Q =.Y 9 M #.d.} 2.2.2.#.| ' f g.u.o.{ H.[.~.{.`.].].2.&.X.x...s B l.^.[.).^.' ) ~...rX! s 8 <.2.| 2.} ! %.d ",
">.H S.0.>.,.p.g.u.z.x.qXQ.6.p.N.9X3XA.z.x.x.B.B.N.rXS.n.k.iX8Xl.z.*X*XH.=XC.P.6XY I ,.uXu.#X*X=XB.B.p.A.jXr.:.H G.I.u.,.<.,.k.n.",
"T a.%X$Xz.8.6.7.k.L.P.9X9XP.3X9X4X3XiX9XG.yXgXtX#X-X-X@Xd.=Xz.l.G.v.H.y.G.S.b.V.Z.v.v.c.b.S.pXdXdXeXtX;X#X$X@Xa.<.<.<.G.U.3X3X3X",
"Q / ' _ %.z.{ ..].u.F =. X|.o.s.2.2.z.].} d 2.2.} _ ~._ _ ~.~.~.H.s s a <.:.<.x.d.<.X.X.C b l.'.{.1X@XC ^ ^.'.{.].].{ l.5X&X$.].",
"^ M B W 1.B.B ~ #.r. .=.o.%.~ %.oX2.l.1.2.1.2.,.! <.]./ d _ ].{.G.a F [ H.>.<.1.<.X.n X.%.R A.].[.[.@XF j N { ..~ o.a j.<X1X].].",
"B a a N X.y.9 9 a ,.....#.....+.<.,.,.,.! / ].<.d ! 2.i a f g | yXa a s 4X>.v ,.X.V F O.P G N.s a q ,.P 9 0 9 - - V > <.1.F [ 2.",
"j.>.:.;.9.R.6.J ;.e.9.0.7.7.9.i.:.>.F.w.;.w.R.kXfXU.j.l.H.l.H.H.gXT.S.n.gXT.n.k.D.S.S.S.J.E.fXb.i.9.W.pXU.P.G.G.U.G.H.fX8X,.>.v.",
"7.Y F.-XOX@Xh.t.t.d.t.V.n.g.d.g.3X,X$X4XeX$X<X#X2.9XV.>.1.H.$X{.1X&X$X$X$X=X5XgX5Xz.f.z.%X+X%XXX+X].,.o.G.,.X.+.G. .%...[ F F X.",
"$ X 7.).| ` ` ~ { #.M @.eX+X[.|.H.]..X#X#X/.!.~.!.5X2.s / $X2.!.~.~.[.].@X].2.=X| W / 2.`.^./.^.| / / s O.9 * a r.0 s W / / ! / ",
"; $ i.*.! ~ ~ ~ C ~ M U 5X=.^ [ H.].x.*X2.2.~.&.].$X<.1.2.$X2.~.| | 2.2.x.].2.$X&...{ *.&.&.&.} ! N ! W r.- ; ; ,.9 0 a a a a 0 ",
"= : n.g.^ ~ ~ B B N e O.v.M M ~ 3X<.1.1.1.[ } } ) ;X>.F ! 2.<.} } | 2.2.x.2.2.8X*.C F r.} /.| ^ [ B M x v.K b S k.1 > a a > a v ",
"j.y.L.P.N.L.n.A.3XqXG.P.L.8.9.y.T.I.G.S.F.I.P.T.iXuXE.n.F.0XU.j.S.I.n.H.8XT.H.I.S.y.j.S.k.N.U.F.F.b.F.n.P.8Xn.b.F.i.9.n.G.v.V.G.",
"+ $ % % h K.> Z M P.O.e N W N W W / s.0X>X{.{.B.D ! { { / Q W s ,.H.e [ [.H.v v x Z x M x 9 i.=.(.' x.X.i Q d r 0 0 8 U V + @ v ",
"+ & 8 % j b.h M N N.@.e N N l Q } $.XX3X#X].'.a.V ~ s / d f Q r <.H.f ! [.H.c a x z a 9 9 9 p.&.}.'.f.V u Q ) ( N ~ M O.v - ; v ",
"O % 7 7 0 9.0 0 w B.P i d r u u f ] } k.].[.'.2.a d d u p p p w ,.1.w s / z.> ; $ % 6 9 9 % p.! u u ..V t 7 t w t s q C > . . ; ",
"b b R X.t.uXi.j.6.uXpXt.@.,.U O.O.2.4XuXf.h.2.wX8Xx.*Xg.1.<.x.#XyXgXd.u.;XtXn.:.,.8.>.Y r.,.U.z.V R 6XZ.3.U T u.A.6XqXuXI.m.n.D.",
"R.rXiXW.U.W.W.K.Y.J.I.iXkX7XwXyXgX0X6X3XA.v.i.v.F.rXgX6XC.C.I.n.H.k.j.j.k.j.3XfX4X4XH.uXV.l.k.k.i.p.N.V.P.L.N.n.pXL.A.6XG.N.k.k.",
"~ W f.y.7 7 y O O % 6 x 8Xu _ !.OXF q 0 r 6 7 6 X v +.7 7 f  .% a e q 0 8 ; ; z.` W M U.n t * % 6 % 8 6 O.< % $ T x q B q 0 9 % ",
"N N 1.k.8 j k 0 e N M v A.^ ` ( %XT 8 0 9 ; ; 0 % G h.d W $.<.; z a > a a > > z./.^ W A.G x x = ; 9 h 9 r.< = = T E 9 v x x > = ",
"0 7 ..c.5 0 6 O o 6 q - i.r u i 2.F e e q % $ 6 : A h.u r | ,.+ $ + . + + + @ k.d a 8 l.1 * $ + + + $ : y.4 # # 6.b ; * * + # . ",
"c.L.uXT.7.8.p.i.9.7.Y 0.Q.v.c.v.rXrXV.n.k.k.k.k.k.n.fXtXrXuXfXG.S.c.i.>.:.>.,.fXfXrXR.gXI.tXyX8XG.H.F.H.rXpXU.R.jX0X8XrXU.H.H.6X",
"B.;X-X:X*X3XU.=X6X;X8XB.N.N.;X7X9X3X*X9X,.,.l.9Xl.X.o.1.1.%.f.oX3XU.k.N.3XG.u.I A c A F F ,.3X=Xd.=Xk.L A L  .F V o.g.G.Y >.k.U.",
"( p p ] i %.#X~.!._ ..i u w w i ) ) &.f.F a / 1.a w t r i t u y F F $ a n ! 7 q 6 : 5 s d F -X[.} ].D $ a 8 ; ; 0 9 L R X ; n 7.",
"Q l W l r *.>X~._ | *.u s W Q Q | 2.2.x.n a a >.[ s s 0 q e N l [ D a v U X.s a a 6 a s s s 1.[ M  .U % ; $ ; ; > 8 R 0.* = b 7.",
"t 7 w t y ..u.w r Q ~ Q i i g i ] ~.' z.a ; % F C r r e t w N d X.Y a c T F s 6 % : % % 6 D ;.$ - ,.y.< > > @ @ ; - I 6.+ = 2 c.",
"M.c.J.P.L.iXjXb.0.V.I.U.I.E.P.G.n.G.3XgXR.S.>.H.n.>.n.n.Z.F.L.A.U.qXH.3XwX3X3XtXl.V.l.V.V.F.H.u.F.rXaXgXgXeX5X4XqX6X8Xl.r.l.=X9X",
"3.E Y.D.G H L H L A A r.hXi.>.I S.T U 1.1.<.,.<.T u.P.<.@.r.A.E D F D F  .D A U.v c c n.F / B { { ~ ..C C.2.o.x V.P Z B B C ..~ ",
"j 5 +.3.X $ + + & & * m b.& j 9 B.m 8 N k e l k - R <.5 % j V.* z x - > z > = k.* & = u.N -.W l ` ` ^.` p.M x & i.P a C [ ~ F B ",
"* % R 3.+ # # # @ * * m 9.9 0 0 N.A j B h 9 h h * T t.5 6 m N.& $ + + ; & = > k.* * * y.k k k 6 0 e l N r.- & o v.~ s C ~ N N W ",
"= * R 3.+ # # @ = < 1 R Y.H I <.6XY E n c m S 1 h 0.F.1 G 3.M.3.J 1 2 :.U :.>.0Xy.>.7.I.T ,.T p.v.i.y.v.T.Y I G uX6Xg.l.C.p.<.d.",
"Q.Q.Q.Y.L.J.L.L.P.T.K.W.iXT.Y.E.W.L.U.T.0XyXsXiXuX0XT.6XrXqX7X7XfXR.rXG.uX6XA.V.C.;XB.A.V.rX0XC.6XsX8XA.v.B.l.l.p.y.n.k.,.u.H.c.",
"Z C B ~ -.p.@.~ ~ +.I * x x j - , 9 n z.` #.$.p.j ^ ! l u Q ( l p.1 v n 7.V 8 8 * % * 9 % E m % : R z * 8 8 6 * * % A V s s <.2 ",
"0 j e l 5 3.n w k @.I 6 x j h 9 h x @.t.W l -.t.j C l j j l -.l p.b c < r.A ; = = * = * * R K - - ,.A q k B C k a 0 :.D v Z <.2 ",
"q q q r 5 @.j O 5 o.J % 0 $ o $ 8 j m 3.l k k R j q t 7 q l l l k.4 - = G V * z - % - - % 3.4.# . i.G 6 l ~ B l N 0 y.b - - i.;.",
"n T T R R m.m.c.8.L.I.6.6.y.c.c.j.n.K.Y.3.0.c.Y.0.v.v.c.N.6X6X;XuX5.J ;.S.L.k.N.p.v.v.F.Z.tXP.J.m.uXG.g.k.k.v.k.v.9XtXS.n.c.G.U.",
"L.Y.E.Q.m.m.D.e.c.c.c.m.W.e.3.3.v.A.@Xd.t.O.d.h.g.V.Z.a.+.3.P.G b L P ,.R Y U G.-X%XOX<Xr.V P P 3.G n c i.,.L c ;.d.~ Z z z 9 x ",
"h : h 3.. $ + . . + & X c.R 9 * E <.Q ( d W d l t C p.r l t t.h % % 9 x N s 0 u.=.Q d [.E & & * $ - * % ,.F x - Y P e B 0 x V Z ",
"h % h c.+ @ # @ # @ = # 9.c h , S a.-.-.^ ~ l k k @.k.q l ~ O.& 8 % - x x x % R =.C W =.V % * & $ $ + o L n z @ 2 P e a & $ * % ",
"o o + 3.  .         .   q.3 + * h R j , l E m x h 3.Z.Z E @.L.G v c n b < c = 8.,.C ~ h.r.m m S G K J 6.J.m.5.J S.G.r.r.7.j.i.j.",
"q.q.q.Q.e.q.5.K 3 4.;.3 K.hXe.e.D.m.3.3.0.L.Y.Y.Y.U.fXU.F.F.uXuXpXtX8XqX8XP.C.M.0.3.9.v.P.L.P.A.G.U.0XP.A.N.p.g.l.p.U.rXV.Z.P.V.",
"3.G K 3.T c.e.3.Y e.K.K < < z b m b 3.Q.oXOX).g.3.l q j 6 % * : 3.*.( ) oXU j q j j k 8 * I P x E @.E k q r e 7 6 O R I $ . n S ",
"o o o o o A K : . c m.$ , - = , h , h ;X$.$.' g.j j k k j j h % 3.o.! ~ s.T V E C Z M Z m Y R z j @.E q M 0 0 9 h * Y 3.< z T G ",
"$ $ : & : H K ; - I J.* h @ = = = , E V.-.-.$.B.m j 8 j j h h h 3.@.-.o.d.R C C , h h 0 0 R L 9 9 t.t.8 h 8 z z 9 $ 3.7., < 9.J "
};
